<?xml version="1.0" standalone="no"?>
<!DOCTYPE svg PUBLIC "-//W3C//DTD SVG 20010904//EN"
 "http://www.w3.org/TR/2001/REC-SVG-20010904/DTD/svg10.dtd">
<svg version="1.0" xmlns="http://www.w3.org/2000/svg"
 width="370.000000pt" height="285.000000pt" viewBox="0 0 370.000000 285.000000"
 preserveAspectRatio="xMidYMid meet">

<g transform="translate(0.000000,285.000000) scale(0.100000,-0.100000)"
fill="#000000" stroke="none">
<path d="M906 2164 c-4 -15 -12 -32 -19 -40 -28 -31 -35 -42 -41 -62 -4 -12
-11 -22 -16 -22 -5 0 -11 -13 -15 -30 -4 -16 -11 -30 -16 -30 -5 0 -9 -7 -9
-15 0 -9 -6 -18 -14 -21 -8 -3 -18 -19 -21 -35 -4 -16 -11 -29 -16 -29 -5 0
-9 -7 -9 -15 0 -7 -6 -18 -14 -22 -7 -4 -19 -25 -25 -45 -7 -21 -16 -38 -21
-38 -5 0 -11 -13 -15 -30 -4 -16 -11 -30 -16 -30 -5 0 -9 -7 -9 -15 0 -9 -6
-18 -14 -21 -8 -3 -18 -19 -21 -35 -4 -16 -11 -29 -16 -29 -5 0 -9 -16 -9 -35
0 -19 4 -35 9 -35 5 0 12 -13 16 -29 3 -16 13 -32 21 -35 8 -3 14 -12 14 -21
0 -8 4 -15 9 -15 5 0 12 -13 16 -30 4 -16 10 -30 15 -30 5 0 14 -17 21 -37 6
-21 17 -43 23 -50 29 -33 36 -43 42 -67 3 -14 10 -26 15 -26 5 0 9 -7 9 -15 0
-9 6 -18 14 -21 8 -3 18 -19 21 -35 4 -16 11 -29 16 -29 5 0 11 -11 15 -25 3
-14 10 -25 14 -25 5 0 12 -10 16 -22 3 -12 13 -28 20 -36 8 -7 14 -20 14 -27
0 -12 32 -15 172 -17 150 -3 173 -5 176 -19 2 -9 -3 -23 -11 -31 -8 -8 -18
-25 -22 -38 -4 -13 -13 -30 -19 -37 -29 -33 -36 -43 -41 -66 -4 -14 -13 -28
-21 -31 -22 -8 -18 -79 6 -106 11 -13 20 -29 20 -37 0 -7 4 -13 9 -13 5 0 12
-13 16 -29 3 -16 13 -32 21 -35 8 -3 14 -12 14 -21 0 -8 5 -15 10 -15 6 0 10
-6 10 -13 0 -8 9 -24 20 -37 11 -13 20 -29 20 -37 0 -7 4 -13 8 -13 5 0 15
-18 22 -40 7 -22 17 -40 21 -40 4 0 10 -13 14 -29 3 -16 13 -32 21 -35 8 -3
14 -12 14 -21 0 -8 5 -15 10 -15 6 0 10 -7 10 -15 0 -9 6 -18 14 -21 8 -3 17
-16 20 -30 4 -13 14 -33 23 -44 17 -19 31 -20 380 -20 315 0 364 2 377 16 9 8
16 22 16 30 0 8 5 14 10 14 6 0 10 7 10 15 0 9 6 18 14 21 8 3 18 19 21 35 4
16 11 29 16 29 5 0 9 7 9 15 0 7 6 18 14 22 7 4 19 25 25 46 7 20 16 37 21 37
4 0 11 12 14 26 4 15 12 32 19 40 30 34 37 44 43 68 3 14 10 26 15 26 5 0 9 7
9 15 0 9 6 18 14 21 8 3 18 19 21 35 4 16 10 29 15 29 5 0 11 14 15 30 4 17
11 30 16 30 5 0 9 7 9 15 0 8 -4 15 -9 15 -5 0 -12 13 -16 30 -4 16 -10 30
-15 30 -5 0 -11 13 -15 30 -4 16 -10 30 -15 30 -5 0 -12 10 -16 22 -3 12 -13
28 -20 36 -8 7 -14 20 -14 28 0 8 -4 14 -10 14 -5 0 -10 9 -10 20 0 19 7 20
134 20 l134 0 6 25 c4 14 11 25 16 25 6 0 10 6 10 14 0 8 6 21 13 28 8 7 20
30 26 51 7 20 16 37 21 37 5 0 11 13 15 30 4 16 10 30 15 30 5 0 11 13 15 29
3 16 13 32 21 35 8 3 14 12 14 21 0 8 4 15 9 15 5 0 12 13 16 30 4 17 10 30
15 30 5 0 11 14 15 30 4 17 10 30 15 30 5 0 11 13 15 29 3 16 12 32 19 34 8 3
17 18 21 34 3 15 11 30 16 33 17 11 22 66 7 81 -8 8 -20 30 -28 49 -8 19 -20
41 -27 48 -7 7 -13 20 -13 28 0 8 -4 14 -10 14 -5 0 -10 7 -10 15 0 9 -6 18
-14 21 -8 3 -18 19 -21 35 -4 16 -11 29 -16 29 -5 0 -9 7 -9 15 0 9 -6 18 -14
21 -8 3 -18 19 -21 35 -4 16 -11 29 -16 29 -5 0 -11 11 -15 25 -3 14 -10 25
-14 25 -5 0 -11 14 -15 31 -4 17 -13 33 -20 36 -8 2 -17 17 -20 33 -3 16 -13
31 -21 34 -8 3 -14 10 -14 16 0 6 -6 18 -14 26 -12 12 -76 14 -375 14 l-361 0
-6 -25 c-3 -14 -10 -25 -15 -25 -5 0 -9 -6 -9 -13 0 -8 -9 -24 -20 -37 -11
-13 -20 -29 -20 -37 0 -7 -4 -13 -9 -13 -5 0 -12 -13 -16 -29 -3 -16 -13 -32
-21 -35 -8 -3 -14 -12 -14 -21 0 -8 -7 -15 -15 -15 -8 0 -15 7 -15 15 0 8 -4
15 -10 15 -5 0 -10 7 -10 15 0 9 -6 18 -14 21 -8 3 -19 25 -26 49 -7 25 -16
42 -21 39 -5 -2 -11 7 -15 21 -3 14 -10 25 -14 25 -4 0 -11 11 -14 25 l-6 25
-374 0 -374 0 -6 -26z m751 -112 c7 -7 13 -20 13 -28 0 -8 4 -14 9 -14 5 0 12
-13 16 -29 3 -16 12 -32 20 -34 7 -3 16 -19 20 -36 4 -17 11 -31 16 -31 5 0 9
-9 9 -20 0 -11 -4 -20 -8 -20 -5 0 -15 -18 -22 -40 -7 -22 -17 -40 -21 -40 -4
0 -10 -13 -14 -29 -3 -16 -13 -32 -21 -35 -8 -3 -14 -12 -14 -21 0 -8 -4 -15
-10 -15 -5 0 -10 -7 -10 -15 0 -7 -8 -18 -17 -24 -13 -7 -18 -22 -18 -56 0
-34 5 -49 18 -56 9 -6 17 -17 17 -24 0 -8 4 -15 9 -15 5 0 12 -13 16 -29 3
-16 13 -32 21 -35 8 -3 14 -12 14 -21 0 -8 4 -15 9 -15 4 0 14 -20 21 -45 7
-25 17 -45 21 -45 5 0 9 -7 9 -15 0 -8 -4 -15 -9 -15 -4 0 -14 -20 -21 -44 -7
-25 -18 -47 -26 -50 -8 -3 -14 -12 -14 -21 0 -8 -4 -15 -9 -15 -5 0 -12 -11
-15 -25 -4 -14 -11 -25 -16 -25 -6 0 -10 -7 -10 -15 0 -12 -3 -12 -20 2 -11
10 -20 23 -20 30 0 7 -4 13 -10 13 -5 0 -10 6 -10 14 0 8 -6 21 -13 28 -8 7
-20 31 -27 53 -7 22 -19 44 -26 48 -8 4 -14 15 -14 22 0 8 -4 15 -9 15 -5 0
-12 13 -16 29 -3 16 -13 32 -21 35 -8 3 -14 12 -14 21 0 8 -4 15 -9 15 -5 0
-12 12 -15 26 -6 24 -13 34 -43 68 -7 8 -15 25 -19 40 -3 14 -10 26 -15 26 -5
0 -9 11 -9 25 0 14 4 25 9 25 5 0 12 12 15 26 4 15 12 32 19 40 30 34 37 44
42 67 4 14 13 28 21 31 8 3 14 12 14 21 0 8 4 15 9 15 5 0 12 12 15 26 4 15
12 32 19 40 29 32 35 42 46 77 7 20 16 37 21 37 5 0 11 14 15 30 4 17 11 30
16 30 5 0 9 5 9 12 0 17 34 47 39 34 2 -6 10 -17 18 -24z m653 -539 c11 -10
20 -23 20 -30 0 -7 4 -13 8 -13 5 0 14 -16 22 -35 8 -19 17 -35 21 -35 4 0 10
-13 14 -30 4 -16 11 -30 16 -30 5 0 11 -11 15 -25 3 -14 10 -25 15 -25 5 0 9
-6 9 -13 0 -8 9 -24 20 -37 11 -13 20 -29 20 -37 0 -7 5 -13 10 -13 6 0 10 -7
10 -15 0 -9 6 -18 14 -21 8 -3 18 -19 21 -35 4 -16 10 -29 14 -29 8 0 31 -59
31 -78 0 -8 -29 -12 -95 -12 -75 0 -99 4 -115 17 -11 10 -20 23 -20 31 0 7 -6
15 -14 18 -8 3 -18 19 -21 35 -4 16 -11 29 -16 29 -5 0 -11 11 -15 25 -3 14
-10 25 -14 25 -5 0 -11 13 -15 29 -3 16 -13 32 -21 35 -8 3 -14 12 -14 20 0
23 -24 26 -206 26 -96 0 -174 4 -174 9 0 5 -11 12 -24 15 -14 3 -26 16 -30 31
-4 14 -10 25 -15 25 -5 0 -12 14 -16 30 -4 17 -10 30 -14 30 -4 0 -13 16 -21
35 -8 19 -17 35 -22 35 -4 0 -8 7 -8 15 0 13 39 15 295 15 264 0 297 -2 315
-17z m-180 -288 c0 -8 -4 -15 -9 -15 -5 0 -12 -11 -15 -25 -4 -14 -10 -25 -15
-25 -5 0 -12 -13 -16 -30 -4 -16 -11 -30 -16 -30 -5 0 -9 -7 -9 -15 0 -9 -6
-18 -14 -21 -8 -3 -18 -18 -21 -34 -3 -16 -13 -31 -21 -34 -8 -3 -14 -12 -14
-21 0 -8 -4 -15 -8 -15 -5 0 -14 -18 -21 -40 -6 -22 -16 -40 -21 -40 -4 0 -11
-13 -15 -29 -3 -16 -13 -32 -21 -35 -8 -3 -14 -12 -14 -21 0 -8 -4 -15 -9 -15
-5 0 -12 -12 -16 -27 -3 -15 -12 -31 -18 -35 -7 -4 -148 -8 -314 -8 -284 0
-302 1 -296 18 4 9 13 23 20 30 7 7 13 20 13 28 0 8 4 14 10 14 5 0 12 11 16
25 3 14 10 25 14 25 5 0 12 10 16 23 15 51 34 57 171 57 151 0 171 4 179 36 3
13 10 24 15 24 5 0 9 7 9 15 0 9 6 18 14 21 8 3 18 19 21 36 4 16 13 32 20 35
8 2 17 18 20 34 4 16 11 29 16 29 5 0 9 6 9 13 0 8 10 26 23 40 22 26 23 26
170 26 124 1 147 -1 147 -14z"/>
</g>
</svg>
